<svg width="31" height="30" viewBox="0 0 31 30" fill="none" xmlns="http://www.w3.org/2000/svg">
<circle cx="15.002" cy="15" r="15" fill="white"/>
<path d="M21.9225 11.3263C21.8773 11.2797 21.8172 11.2485 21.7514 11.2375C21.6856 11.2264 21.6178 11.2362 21.5585 11.2652C21.4824 11.3021 21.3393 11.3505 21.1695 11.3984C21.3838 11.1286 21.556 10.8266 21.6321 10.5551C21.6481 10.498 21.6452 10.4376 21.6238 10.3821C21.6024 10.3266 21.5634 10.2787 21.5123 10.2448C21.4611 10.211 21.4002 10.1929 21.3378 10.1929C21.2754 10.1929 21.2145 10.2111 21.1634 10.245C20.9985 10.3539 20.2023 10.6813 19.6989 10.7874C18.5613 9.84383 17.2374 9.74584 15.8611 10.5067C14.7424 11.1252 14.4989 12.3829 14.5464 13.1495C11.9856 12.9161 10.3939 11.6353 9.49791 10.5753C9.46684 10.5392 9.4272 10.5107 9.38224 10.492C9.33727 10.4732 9.28826 10.4648 9.23922 10.4675C9.19007 10.4709 9.1425 10.4854 9.10054 10.5099C9.05858 10.5344 9.02347 10.5681 8.99818 10.6081C8.57453 11.2854 8.45705 12.0342 8.65975 12.7737C8.77053 13.1772 8.96409 13.5328 9.1887 13.821C9.07838 13.7695 8.97447 13.7064 8.87887 13.6331C8.83423 13.5988 8.78024 13.5772 8.72315 13.5707C8.66607 13.5643 8.60822 13.5733 8.55632 13.5967C8.50441 13.6201 8.46056 13.657 8.42985 13.703C8.39914 13.749 8.38283 13.8023 8.38279 13.8568C8.38279 15.1266 9.22157 15.9739 10.0049 16.4166C9.87206 16.401 9.74089 16.3744 9.61295 16.337C9.55698 16.3208 9.49725 16.3202 9.44093 16.3353C9.3846 16.3504 9.33408 16.3806 9.2954 16.4222C9.25673 16.4638 9.23154 16.5151 9.22287 16.5699C9.21421 16.6247 9.22242 16.6808 9.24652 16.7313C9.6866 17.653 10.5205 18.287 11.5522 18.517C10.6514 19.0179 9.44556 19.2634 8.3414 19.143C8.19836 19.1239 8.06202 19.2098 8.01697 19.3401C7.97193 19.4704 8.03097 19.6133 8.15697 19.6802C9.83208 20.5707 11.3465 20.8889 12.6552 20.8889C14.5598 20.8889 16.0297 20.2156 16.9245 19.6525C19.3367 18.1366 20.8402 15.4148 20.6308 12.9795C21.0173 12.7091 21.5956 12.21 21.9541 11.6733C21.9901 11.6203 22.0066 11.5575 22.0008 11.4947C21.9951 11.4319 21.9675 11.3727 21.9225 11.3263Z" fill="#121212"/>
</svg>
