<svg width="24" height="28" viewBox="0 0 24 28" fill="none" xmlns="http://www.w3.org/2000/svg">
<path fill-rule="evenodd" clip-rule="evenodd" d="M0.376433 12.0949C-0.371054 10.872 0.036397 9.27716 1.27884 8.56279L15.3243 0.487134C17.0715 -0.517462 19.3074 0.0816301 20.3182 1.82524C21.4271 3.7379 20.5905 6.18333 18.542 7.01759L3.52987 13.1313C2.36745 13.6047 1.03074 13.1654 0.376433 12.0949ZM1.57341 23.3162C1.54008 21.885 2.69113 20.7069 4.12268 20.7069H20.3536C22.3672 20.7069 23.9996 22.3392 23.9996 24.3529C23.9996 26.5614 22.0518 28.2628 19.8634 27.9658L3.77985 25.7836C2.53794 25.6151 1.60259 24.5691 1.57341 23.3162ZM4.03741 14.8893C3.04437 15.1279 2.44407 16.1369 2.70824 17.1235C2.93994 17.9889 3.76762 18.5578 4.65873 18.4642L16.6452 17.2051C18.2138 17.0403 19.2767 15.5337 18.9054 14.0011C18.5661 12.6004 17.1549 11.7378 15.7535 12.0745L4.03741 14.8893Z" fill="#FE753E"/>
</svg>
