<?xml version='1.0' encoding='utf-8'?>
<svg xmlns="http://www.w3.org/2000/svg" version="1.1" viewBox="0 0 124.02 124.02"><defs><clipPath id="a"><path d="m0 0h99.213v99.213h-99.213v-99.213z"/></clipPath></defs><g transform="matrix(1.25 0 0 -1.25 0 124.02)"><g clip-path="url(#a)"><g transform="translate(12.377 45.365)"><path d="m0 0v-4.43c0-0.089-1e-3 -0.178 5e-3 -0.266 2e-3 -0.036 0.015-0.077 0.037-0.105 0.058-0.074 0.118-0.148 0.187-0.211 0.079-0.071 0.173-0.114 0.284-0.114 1.944 0 57.745 1e-3 59.688-4e-3 0.151 0 0.27 0.057 0.393 0.126 0.096 0.054 0.151 0.138 0.186 0.235 0.033 0.093 0.068 0.19 0.078 0.288 0.018 0.156 0.015 0.315 0.022 0.473 1e-3 0.017 0.014 0.047 0.023 0.048 0.019 1e-3 0.042-0.01 0.056-0.023 0.027-0.024 0.047-0.056 0.074-0.08 0.135-0.115 0.28-0.217 0.437-0.303 0.178-0.099 0.369-0.153 0.57-0.174 0.073-8e-3 0.147-4e-3 0.221-4e-3h2.785c0.931 0 1.861-6e-3 2.792 2e-3 0.927 8e-3 1.855-0.037 2.781 0.026 0.106 7e-3 0.213 0.024 0.315 0.052 0.113 0.032 0.226 0.075 0.331 0.126 0.109 0.053 0.212 0.118 0.312 0.185 0.11 0.073 0.219 0.148 0.317 0.235 0.142 0.126 0.278 0.259 0.379 0.421 0.057 0.09 0.113 0.18 0.166 0.272 0.018 0.031 0.024 0.068 0.041 0.1 0.033 0.059 0.075 0.114 0.071 0.187-1e-3 0.021 0.013 0.042 0.021 0.063 0.01 0.027 0.027 0.052 0.031 0.08 0.02 0.12 0.029 0.241 0.055 0.358 0.022 0.097 0.027 0.188 9e-3 0.286-0.031 0.18-0.053 0.362-0.073 0.543-3e-3 0.032 0.018 0.074 0.04 0.1 0.063 0.072 0.137 0.134 0.199 0.207 0.166 0.195 0.297 0.411 0.373 0.658 0.016 0.051 0.041 0.102 0.05 0.155 0.017 0.106 0.025 0.214 0.037 0.321 1e-3 0.01 5e-3 0.02 5e-3 0.03 2e-3 0.056 8e-3 0.112 3e-3 0.167-0.011 0.124-0.026 0.248-0.044 0.371-0.011 0.072-0.021 0.148-0.052 0.213-0.042 0.091-0.045 0.118 0.029 0.186 0.036 0.032 0.073 0.063 0.105 0.098 0.066 0.072 0.134 0.142 0.192 0.22 0.072 0.093 0.141 0.189 0.199 0.292 0.049 0.088 0.087 0.184 0.118 0.28 0.031 0.094 0.048 0.193 0.069 0.29 6e-3 0.026-1e-3 0.055 8e-3 0.078 0.037 0.091 0.037 0.182 0.024 0.278-0.025 0.196-0.052 0.389-0.146 0.567-0.011 0.021-0.017 0.049-0.034 0.062-0.052 0.042-0.029 0.075 5e-3 0.11 0.148 0.159 0.31 0.302 0.43 0.488 0.101 0.157 0.191 0.316 0.261 0.487 6e-3 0.013 9e-3 0.027 0.016 0.039 0.088 0.142 0.081 0.306 0.099 0.461 0.015 0.126-6e-3 0.257-0.018 0.385-8e-3 0.085-0.029 0.17-0.045 0.254-2e-3 8e-3 -7e-3 0.015-0.011 0.022-0.015 0.032-0.03 0.063-0.044 0.096-0.036 0.081-0.059 0.169-0.107 0.241-0.081 0.12-0.176 0.231-0.269 0.344-0.099 0.119-0.221 0.212-0.356 0.289-0.032 0.018-0.068 0.032-0.102 0.048-0.072 0.034-0.142 0.071-0.215 0.1-0.045 0.018-0.096 0.024-0.145 0.034-0.064 0.015-0.128 0.041-0.193 0.041-1.775 2e-3 -3.55 2e-3 -5.325 2e-3 -0.081 0-0.163 0.012-0.244 0.012-0.074 0-0.075 0.021-0.048 0.08 0.035 0.079 0.079 0.155 0.108 0.236 0.042 0.122 0.075 0.247 0.111 0.371 0.072 0.248 0.145 0.496 0.215 0.744 0.023 0.082 0.038 0.165 0.058 0.248 0.022 0.092 0.056 0.183 0.066 0.276 0.022 0.196 0.034 0.394 0.047 0.592 0.022 0.303 0.019 0.606-0.043 0.905-0.083 0.401-0.183 0.798-0.328 1.183-0.094 0.251-0.187 0.502-0.28 0.753-3e-3 8e-3 -7e-3 0.015-0.012 0.022-0.057 0.098-0.121 0.194-0.172 0.295-0.058 0.118-0.101 0.242-0.157 0.361-0.079 0.166-0.149 0.339-0.3 0.46-0.051 0.041-0.098 0.088-0.151 0.127-0.124 0.091-0.256 0.168-0.398 0.232-0.118 0.053-0.238 0.093-0.364 0.119-0.1 0.021-0.199 0.059-0.3 0.064-0.219 9e-3 -0.439 4e-3 -0.658 1e-3 -0.066-1e-3 -0.136-5e-3 -0.198-0.027-0.13-0.045-0.259-0.095-0.381-0.159-0.1-0.052-0.194-0.119-0.28-0.192-0.161-0.137-0.309-0.287-0.399-0.483-0.013-0.029-0.025-0.06-0.044-0.086-0.056-0.071-0.058-0.152-0.049-0.236 3e-3 -0.022 7e-3 -0.044 8e-3 -0.066 7e-3 -0.263 0.016-0.526 0.019-0.788 4e-3 -0.373 2e-3 -0.745 3e-3 -1.117 0-0.247 1e-3 -0.493-1e-3 -0.74-1e-3 -0.043-7e-3 -0.089-0.023-0.129-0.031-0.076-0.07-0.149-0.107-0.223-0.091-0.183-0.18-0.368-0.275-0.549-0.073-0.139-0.152-0.274-0.23-0.411-0.085-0.148-0.171-0.296-0.258-0.444-0.071-0.121-0.143-0.242-0.216-0.363-0.095-0.154-0.188-0.309-0.286-0.461-0.087-0.134-0.179-0.264-0.27-0.394-0.168-0.241-0.329-0.487-0.507-0.72-0.23-0.3-0.473-0.589-0.742-0.857-0.082-0.082-0.161-0.122-0.284-0.121-1.443 5e-3 0.658 3e-3 -0.785 3e-3 -0.642 0-58.685 0-59.327-1e-3 -0.027 0-0.058-2e-3 -0.081-0.015-0.129-0.071-0.218-0.165-0.187-0.327 1e-3 -4e-3 0-8e-3 0-0.012v-4.569" fill="#fff"/></g><g transform="translate(12.377 45.365)"><path d="m0 0v4.569c0 4e-3 1e-3 8e-3 0 0.012-0.031 0.162 0.058 0.256 0.187 0.327 0.023 0.013 0.054 0.015 0.081 0.015 0.642 1e-3 58.685 1e-3 59.327 1e-3 1.443 0-0.658 2e-3 0.785-3e-3 0.123-1e-3 0.202 0.039 0.284 0.121 0.269 0.268 0.512 0.557 0.742 0.857 0.178 0.233 0.339 0.479 0.507 0.72 0.091 0.13 0.183 0.26 0.269 0.394 0.099 0.152 0.192 0.307 0.287 0.461 0.073 0.121 0.145 0.242 0.216 0.363 0.087 0.148 0.173 0.296 0.258 0.444 0.078 0.137 0.157 0.272 0.23 0.411 0.095 0.181 0.184 0.366 0.275 0.549 0.037 0.074 0.076 0.147 0.107 0.223 0.016 0.04 0.022 0.086 0.023 0.129 2e-3 0.247 1e-3 0.493 1e-3 0.74-1e-3 0.372 0 0.744-3e-3 1.117-3e-3 0.262-0.012 0.525-0.019 0.788-1e-3 0.022-5e-3 0.044-8e-3 0.066-9e-3 0.084-7e-3 0.165 0.049 0.236 0.019 0.026 0.031 0.057 0.044 0.086 0.09 0.196 0.238 0.346 0.399 0.483 0.086 0.073 0.18 0.14 0.28 0.192 0.122 0.064 0.251 0.114 0.381 0.159 0.061 0.022 0.132 0.026 0.198 0.027 0.219 3e-3 0.439 8e-3 0.658-1e-3 0.101-5e-3 0.2-0.043 0.3-0.064 0.126-0.026 0.246-0.066 0.364-0.119 0.142-0.064 0.274-0.141 0.398-0.232 0.053-0.039 0.1-0.086 0.151-0.127 0.151-0.121 0.221-0.294 0.3-0.46 0.056-0.119 0.099-0.243 0.157-0.361 0.051-0.101 0.114-0.197 0.172-0.295 5e-3 -7e-3 9e-3 -0.014 0.012-0.022 0.093-0.251 0.186-0.502 0.28-0.753 0.145-0.385 0.245-0.782 0.328-1.183 0.062-0.299 0.065-0.602 0.043-0.905-0.014-0.198-0.025-0.396-0.047-0.592-0.011-0.093-0.044-0.184-0.066-0.276-0.02-0.083-0.035-0.166-0.058-0.248-0.07-0.248-0.143-0.496-0.215-0.744-0.036-0.124-0.069-0.249-0.111-0.371-0.029-0.081-0.073-0.157-0.108-0.236-0.027-0.059-0.026-0.08 0.048-0.08 0.081 0 0.163-0.012 0.244-0.012 1.775 0 3.55 0 5.325-2e-3 0.065 0 0.129-0.026 0.193-0.041 0.049-0.01 0.099-0.016 0.145-0.034 0.073-0.029 0.143-0.066 0.214-0.1 0.035-0.016 0.07-0.03 0.103-0.048 0.135-0.077 0.257-0.17 0.356-0.289 0.093-0.113 0.188-0.224 0.269-0.344 0.048-0.072 0.071-0.16 0.107-0.241 0.014-0.033 0.029-0.064 0.044-0.096 4e-3 -7e-3 9e-3 -0.014 0.011-0.022 0.016-0.084 0.037-0.169 0.045-0.254 0.012-0.128 0.033-0.259 0.018-0.385-0.018-0.155-0.011-0.319-0.099-0.461-7e-3 -0.012-0.011-0.026-0.016-0.039-0.07-0.171-0.16-0.33-0.261-0.487-0.12-0.186-0.282-0.329-0.43-0.488-0.034-0.035-0.057-0.068-5e-3 -0.11 0.017-0.013 0.023-0.041 0.034-0.062 0.094-0.178 0.121-0.371 0.146-0.567 0.013-0.096 0.013-0.187-0.024-0.278-9e-3 -0.023-2e-3 -0.052-8e-3 -0.078-0.021-0.097-0.038-0.196-0.069-0.29-0.031-0.096-0.069-0.192-0.118-0.28-0.058-0.103-0.127-0.199-0.199-0.292-0.058-0.078-0.126-0.148-0.192-0.22-0.032-0.035-0.069-0.066-0.105-0.098-0.074-0.068-0.071-0.095-0.029-0.186 0.031-0.065 0.041-0.141 0.052-0.213 0.018-0.123 0.033-0.247 0.044-0.371 5e-3 -0.055-1e-3 -0.111-3e-3 -0.167 0-0.01-4e-3 -0.02-5e-3 -0.03-0.012-0.107-0.021-0.215-0.038-0.321-8e-3 -0.053-0.033-0.104-0.049-0.155-0.076-0.247-0.207-0.463-0.374-0.658-0.061-0.073-0.135-0.135-0.198-0.207-0.022-0.026-0.043-0.068-0.04-0.1 0.02-0.181 0.042-0.363 0.073-0.543 0.018-0.098 0.013-0.189-9e-3 -0.286-0.026-0.117-0.035-0.238-0.055-0.358-4e-3 -0.028-0.021-0.053-0.031-0.08-8e-3 -0.021-0.022-0.042-0.021-0.063 4e-3 -0.073-0.038-0.128-0.071-0.187-0.017-0.032-0.023-0.069-0.041-0.1-0.053-0.092-0.109-0.182-0.166-0.272-0.101-0.162-0.237-0.295-0.379-0.421-0.098-0.087-0.208-0.162-0.317-0.235-0.1-0.067-0.203-0.132-0.312-0.185-0.106-0.051-0.218-0.094-0.331-0.126-0.102-0.028-0.209-0.045-0.315-0.052-0.926-0.063-1.854-0.018-2.781-0.026-0.931-8e-3 -1.861-2e-3 -2.792-2e-3h-2.785c-0.074 0-0.148-4e-3 -0.221 4e-3 -0.201 0.021-0.392 0.075-0.57 0.174-0.157 0.086-0.302 0.188-0.437 0.303-0.027 0.024-0.047 0.056-0.074 0.08-0.014 0.013-0.037 0.024-0.056 0.023-9e-3 -1e-3 -0.022-0.031-0.023-0.048-8e-3 -0.158-5e-3 -0.317-0.022-0.473-0.01-0.098-0.045-0.195-0.079-0.288-0.034-0.097-0.089-0.181-0.185-0.235-0.123-0.069-0.242-0.126-0.393-0.126-1.943 5e-3 -57.744 4e-3 -59.688 4e-3 -0.111 0-0.206 0.043-0.284 0.114-0.069 0.063-0.129 0.137-0.187 0.211-0.022 0.028-0.035 0.069-0.038 0.105-6e-3 0.088-4e-3 0.177-4e-3 0.266v4.43m66.737-3.664v-0.01h0.959c0.908 1e-3 1.816 3e-3 2.724 0 0.182 0 0.342 0.055 0.491 0.148 0.21 0.13 0.404 0.28 0.567 0.467 0.184 0.21 0.325 0.438 0.347 0.725 0.018 0.236-0.065 0.432-0.222 0.601-0.055 0.059-0.108 0.117-0.123 0.197-0.011 0.065-0.013 0.132-0.021 0.198-5e-3 0.047 0.013 0.085 0.052 0.109 0.059 0.035 0.121 0.065 0.183 0.095 0.214 0.106 0.376 0.265 0.512 0.458 0.103 0.146 0.185 0.302 0.237 0.469 0.045 0.141 0.049 0.288 2e-3 0.436-0.034 0.109-0.059 0.219-0.14 0.304-0.055 0.058-0.111 0.114-0.168 0.169-0.166 0.161-0.076 0.386 0.097 0.456 0.166 0.067 0.313 0.167 0.445 0.286 0.119 0.108 0.221 0.229 0.297 0.374 0.076 0.148 0.122 0.3 0.12 0.464-3e-3 0.19-0.041 0.374-0.146 0.537-0.059 0.091-0.121 0.182-0.193 0.264-0.057 0.066-0.096 0.134-0.082 0.218 0.011 0.068 0.041 0.14 0.112 0.162 0.146 0.044 0.282 0.107 0.407 0.193 0.176 0.123 0.324 0.274 0.42 0.465 0.105 0.207 0.128 0.432 0.108 0.662-0.019 0.205-0.11 0.38-0.257 0.517-0.174 0.163-0.386 0.256-0.636 0.256-0.873-2e-3 -1.746-1e-3 -2.619-1e-3 -0.61 1e-3 -1.221 2e-3 -1.832 2e-3h-1.869c-0.077 0-0.099 0.028-0.083 0.103 0.014 0.065 0.032 0.129 0.047 0.194 0.044 0.201 0.087 0.402 0.13 0.603 0.017 0.075 0.037 0.15 0.051 0.225 0.023 0.115 0.041 0.23 0.062 0.345 0.024 0.124 0.048 0.249 0.071 0.373 0.026 0.137 0.05 0.274 0.075 0.411 0.021 0.115 0.048 0.229 0.062 0.345 0.025 0.21 0.042 0.422 0.062 0.633 0.036 0.389 0.057 0.777-0.06 1.16-0.06 0.196-0.104 0.397-0.168 0.592-0.071 0.217-0.152 0.431-0.238 0.642-0.126 0.311-0.258 0.62-0.391 0.928-0.023 0.054-0.057 0.11-0.101 0.149-0.2 0.172-0.45 0.219-0.702 0.234-0.229 0.013-0.446-0.051-0.653-0.157-0.129-0.067-0.187-0.146-0.185-0.296 8e-3 -0.832 7e-3 -1.663 8e-3 -2.494 0-0.094 0.017-0.19-0.033-0.28-0.22-0.4-0.436-0.804-0.659-1.203-0.151-0.271-0.304-0.54-0.468-0.804-0.242-0.39-0.491-0.778-0.745-1.162-0.162-0.245-0.335-0.483-0.508-0.721-0.159-0.22-0.32-0.439-0.49-0.651-0.113-0.141-0.216-0.289-0.378-0.392-0.311-0.197-0.607-0.416-0.914-0.621-0.072-0.048-0.105-0.095-0.104-0.188 5e-3 -0.72 2e-3 -1.44 3e-3 -2.16v-3.543c0-0.261-1e-3 -0.522-1e-3 -0.783 0-0.03 1e-3 -0.06 0.041-0.061 0.117-3e-3 0.233-4e-3 0.35-6e-3 0.134-2e-3 0.269-4e-3 0.404-8e-3 0.014 0 0.028-7e-3 0.04-0.014 0.183-0.102 0.365-0.206 0.548-0.309 0.145-0.081 0.291-0.162 0.438-0.241 0.035-0.019 0.074-0.04 0.112-0.041 0.338-0.01 0.676-0.022 1.014-0.022 1.197-3e-3 2.394-1e-3 3.591-1e-3" fill="#ed1c24"/></g><g transform="translate(79.114 41.701)"><path d="m0 0c-1.197 0-2.394-2e-3 -3.591 1e-3 -0.338 1e-3 -0.676 0.012-1.014 0.023-0.038 1e-3 -0.077 0.021-0.112 0.04-0.147 0.079-0.293 0.16-0.438 0.242-0.183 0.102-0.365 0.206-0.548 0.309-0.012 7e-3 -0.026 0.013-0.04 0.014-0.135 3e-3 -0.269 5e-3 -0.404 7e-3 -0.117 2e-3 -0.233 3e-3 -0.35 6e-3 -0.04 1e-3 -0.041 0.031-0.041 0.061 0 0.261 1e-3 0.522 1e-3 0.783v3.544c0 0.72 2e-3 1.44-3e-3 2.16-1e-3 0.093 0.032 0.139 0.104 0.188 0.307 0.204 0.603 0.424 0.915 0.621 0.162 0.102 0.264 0.251 0.377 0.391 0.17 0.212 0.331 0.432 0.49 0.652 0.173 0.238 0.346 0.476 0.508 0.721 0.254 0.384 0.503 0.771 0.746 1.162 0.163 0.263 0.316 0.533 0.467 0.803 0.223 0.4 0.439 0.803 0.66 1.204 0.049 0.09 0.032 0.185 0.032 0.279-1e-3 0.831 0 1.663-8e-3 2.494-2e-3 0.15 0.056 0.23 0.186 0.296 0.206 0.106 0.423 0.171 0.652 0.157 0.252-0.014 0.502-0.061 0.702-0.234 0.044-0.038 0.078-0.094 0.101-0.149 0.134-0.308 0.266-0.616 0.391-0.927 0.086-0.212 0.167-0.426 0.238-0.642 0.065-0.195 0.108-0.397 0.168-0.593 0.117-0.382 0.096-0.77 0.06-1.16-0.02-0.211-0.037-0.422-0.062-0.633-0.013-0.116-0.041-0.23-0.062-0.345-0.025-0.137-0.049-0.274-0.075-0.41-0.023-0.125-0.047-0.249-0.07-0.374-0.022-0.115-0.04-0.23-0.063-0.345-0.014-0.075-0.034-0.149-0.05-0.224-0.044-0.201-0.087-0.403-0.131-0.604-0.015-0.065-0.033-0.129-0.047-0.193-0.016-0.076 7e-3 -0.103 0.083-0.103 0.623-1e-3 1.246 0 1.869-1e-3 0.611 0 1.222-1e-3 1.832-1e-3 0.873-1e-3 1.746-2e-3 2.619 0 0.25 1e-3 0.462-0.093 0.637-0.256 0.146-0.136 0.237-0.312 0.256-0.517 0.02-0.23-3e-3 -0.454-0.107-0.662-0.096-0.191-0.245-0.342-0.421-0.464-0.125-0.087-0.261-0.149-0.407-0.194-0.071-0.022-0.101-0.094-0.112-0.161-0.013-0.085 0.025-0.153 0.082-0.219 0.072-0.082 0.134-0.172 0.193-0.264 0.105-0.163 0.143-0.346 0.146-0.537 2e-3 -0.164-0.044-0.315-0.12-0.463-0.076-0.146-0.178-0.266-0.297-0.374-0.132-0.12-0.279-0.219-0.445-0.286-0.173-0.07-0.263-0.296-0.097-0.457 0.057-0.055 0.113-0.111 0.168-0.168 0.081-0.086 0.106-0.195 0.14-0.304 0.047-0.149 0.043-0.295-2e-3 -0.436-0.052-0.167-0.134-0.323-0.237-0.469-0.136-0.193-0.298-0.353-0.512-0.458-0.062-0.031-0.124-0.061-0.183-0.096-0.039-0.023-0.057-0.061-0.052-0.109 8e-3 -0.066 0.01-0.132 0.021-0.197 0.015-0.081 0.068-0.139 0.123-0.198 0.157-0.169 0.24-0.365 0.222-0.601-0.022-0.287-0.163-0.515-0.346-0.725-0.164-0.187-0.358-0.337-0.568-0.467-0.149-0.092-0.309-0.148-0.491-0.147-0.908 3e-3 -1.816 0-2.724-1e-3h-0.959v0.01" fill="#fff"/></g><g transform="translate(16.769 58.001)"><path d="m0 0-0.072-0.348h-2.334l-0.33-1.548h2.07l-0.066-0.348h-2.082l-0.438-2.04h-0.408l0.918 4.284h2.742zm2.187-4.236c-0.218 0.088-0.402 0.211-0.552 0.369s-0.264 0.349-0.342 0.573-0.117 0.472-0.117 0.744c0 0.344 0.052 0.674 0.156 0.99s0.256 0.597 0.456 0.843 0.444 0.442 0.732 0.588 0.616 0.219 0.984 0.219c0.272 0 0.518-0.043 0.738-0.129s0.407-0.207 0.561-0.363 0.272-0.344 0.354-0.564 0.123-0.466 0.123-0.738c0-0.348-0.051-0.683-0.153-1.005s-0.253-0.606-0.453-0.852-0.445-0.442-0.735-0.588-0.625-0.219-1.005-0.219c-0.28 0-0.529 0.044-0.747 0.132m2.604 3.048c-0.054 0.188-0.138 0.351-0.252 0.489s-0.257 0.246-0.429 0.324-0.376 0.117-0.612 0.117c-0.324 0-0.605-0.067-0.843-0.201s-0.437-0.31-0.597-0.528-0.279-0.466-0.357-0.744-0.117-0.563-0.117-0.855c0-0.22 0.032-0.418 0.096-0.594s0.157-0.327 0.279-0.453 0.271-0.223 0.447-0.291 0.374-0.102 0.594-0.102c0.292 0 0.553 0.066 0.783 0.198s0.426 0.303 0.588 0.513 0.286 0.448 0.372 0.714 0.129 0.531 0.129 0.795c0 0.224-0.027 0.43-0.081 0.618m3.429 1.188-0.846-3.936h2.37l-0.084-0.348h-2.772l0.924 4.284h0.408zm4.662 0-0.846-3.936h2.37l-0.084-0.348h-2.772l0.924 4.284h0.408zm4.515-4.236c-0.218 0.088-0.402 0.211-0.552 0.369s-0.264 0.349-0.342 0.573-0.117 0.472-0.117 0.744c0 0.344 0.052 0.674 0.156 0.99s0.256 0.597 0.456 0.843 0.444 0.442 0.732 0.588 0.616 0.219 0.984 0.219c0.272 0 0.518-0.043 0.738-0.129s0.407-0.207 0.561-0.363 0.272-0.344 0.354-0.564 0.123-0.466 0.123-0.738c0-0.348-0.051-0.683-0.153-1.005s-0.253-0.606-0.453-0.852-0.445-0.442-0.735-0.588-0.625-0.219-1.005-0.219c-0.28 0-0.529 0.044-0.747 0.132m2.604 3.048c-0.054 0.188-0.138 0.351-0.252 0.489s-0.257 0.246-0.429 0.324-0.376 0.117-0.612 0.117c-0.324 0-0.605-0.067-0.843-0.201s-0.437-0.31-0.597-0.528-0.279-0.466-0.357-0.744-0.117-0.563-0.117-0.855c0-0.22 0.032-0.418 0.096-0.594s0.157-0.327 0.279-0.453 0.271-0.223 0.447-0.291 0.374-0.102 0.594-0.102c0.292 0 0.553 0.066 0.783 0.198s0.426 0.303 0.588 0.513 0.286 0.448 0.372 0.714 0.129 0.531 0.129 0.795c0 0.224-0.027 0.43-0.081 0.618m2.901 1.188l0.222-3.81h0.012l1.824 3.81h0.492l0.294-3.774h0.012l1.752 3.774h0.426l-2.064-4.284h-0.444l-0.282 3.894h-0.012l-1.872-3.894h-0.45l-0.318 4.284h0.408zm10.009 0-0.57-2.724c-0.028-0.108-0.042-0.232-0.042-0.372-9e-3 -0.156 0.015-0.292 0.072-0.408 0.055-0.116 0.135-0.213 0.24-0.291 0.104-0.078 0.229-0.136 0.378-0.174 0.147-0.038 0.308-0.057 0.48-0.057 0.387 0 0.696 0.097 0.927 0.291 0.23 0.194 0.383 0.473 0.459 0.837l0.606 2.898h0.408l-0.612-2.928c-0.105-0.504-0.315-0.87-0.633-1.098s-0.722-0.342-1.209-0.342c-0.189 0-0.373 0.022-0.555 0.066-0.183 0.044-0.345 0.114-0.489 0.21s-0.261 0.222-0.348 0.378c-0.088 0.156-0.132 0.346-0.132 0.57 0 0.096 0.012 0.212 0.036 0.348l0.576 2.796h0.408zm7.515-0.777c-0.051 0.126-0.123 0.228-0.22 0.306-0.095 0.078-0.214 0.133-0.354 0.165s-0.302 0.048-0.485 0.048c-0.133 0-0.264-0.016-0.394-0.048s-0.247-0.083-0.351-0.153-0.188-0.159-0.252-0.267-0.095-0.238-0.095-0.39c0-0.112 0.021-0.207 0.062-0.285 0.043-0.078 0.097-0.144 0.162-0.198 0.067-0.054 0.143-0.098 0.231-0.132s0.176-0.065 0.265-0.093l0.456-0.138c0.147-0.044 0.291-0.092 0.429-0.144s0.261-0.118 0.369-0.198 0.193-0.18 0.258-0.3c0.063-0.12 0.095-0.27 0.095-0.45 0-0.108-0.021-0.237-0.062-0.387-0.043-0.15-0.123-0.294-0.244-0.432-0.12-0.138-0.288-0.255-0.504-0.351-0.215-0.096-0.498-0.144-0.845-0.144-0.241 0-0.462 0.029-0.664 0.087s-0.376 0.148-0.521 0.27c-0.147 0.122-0.258 0.277-0.334 0.465s-0.108 0.412-0.095 0.672h0.407c-0.011-0.208 9e-3 -0.385 0.063-0.531s0.136-0.265 0.246-0.357 0.244-0.159 0.403-0.201c0.157-0.042 0.333-0.063 0.525-0.063 0.139 0 0.281 0.018 0.425 0.054s0.275 0.091 0.394 0.165c0.117 0.074 0.213 0.169 0.287 0.285s0.112 0.254 0.112 0.414c0 0.152-0.034 0.275-0.099 0.369-0.067 0.094-0.152 0.171-0.256 0.231s-0.218 0.108-0.341 0.144c-0.125 0.036-0.246 0.072-0.366 0.108l-0.421 0.126c-0.252 0.072-0.455 0.187-0.612 0.345-0.155 0.158-0.233 0.375-0.233 0.651 0 0.216 0.042 0.401 0.128 0.555s0.2 0.28 0.342 0.378 0.304 0.171 0.487 0.219c0.181 0.048 0.369 0.072 0.561 0.072 0.215 0 0.42-0.023 0.612-0.069s0.357-0.122 0.495-0.228 0.244-0.244 0.321-0.414c0.075-0.17 0.108-0.379 0.095-0.627h-0.407c0 0.188-0.026 0.345-0.075 0.471m5.928-3.459c-0.218 0.088-0.402 0.211-0.552 0.369s-0.264 0.349-0.342 0.573-0.117 0.472-0.117 0.744c0 0.344 0.052 0.674 0.156 0.99s0.256 0.597 0.456 0.843 0.444 0.442 0.732 0.588 0.616 0.219 0.984 0.219c0.272 0 0.518-0.043 0.738-0.129s0.407-0.207 0.561-0.363 0.272-0.344 0.354-0.564 0.123-0.466 0.123-0.738c0-0.348-0.051-0.683-0.153-1.005s-0.253-0.606-0.453-0.852-0.445-0.442-0.735-0.588-0.625-0.219-1.005-0.219c-0.28 0-0.529 0.044-0.747 0.132m2.604 3.048c-0.054 0.188-0.138 0.351-0.252 0.489s-0.257 0.246-0.429 0.324-0.376 0.117-0.612 0.117c-0.324 0-0.605-0.067-0.843-0.201s-0.437-0.31-0.597-0.528-0.279-0.466-0.357-0.744-0.117-0.563-0.117-0.855c0-0.22 0.032-0.418 0.096-0.594s0.157-0.327 0.279-0.453 0.271-0.223 0.447-0.291 0.374-0.102 0.594-0.102c0.292 0 0.553 0.066 0.783 0.198s0.426 0.303 0.588 0.513 0.286 0.448 0.372 0.714 0.129 0.531 0.129 0.795c0 0.224-0.027 0.43-0.081 0.618m3.453 1.188l1.71-3.828h0.012l0.792 3.828h0.396l-0.936-4.284h-0.45l-1.71 3.828h-0.012l-0.798-3.828h-0.39l0.924 4.284h0.462z" fill="#231f20"/></g><g transform="translate(43.834 46.823)"><path d="m0 0c-0.468 0-0.805-0.151-1.146-0.306v-3.488c0.327-0.031 0.515-0.031 0.825-0.031 1.123 0 1.277 0.508 1.277 1.216v1.666c0 0.523-0.176 0.943-0.956 0.943m-7.454 0.19c-0.779 0-0.956-0.422-0.956-0.944v-0.294h1.912v0.294c0 0.522-0.178 0.944-0.956 0.944m-14.439-3.631c0-0.413 0.197-0.628 0.633-0.628 0.468 0 0.745 0.151 1.087 0.306v0.827h-1.023c-0.485 0-0.697-0.089-0.697-0.505m29.144 3.441c-0.78 0-1.05-0.42-1.05-0.943v-1.909c0-0.524 0.27-0.945 1.05-0.945 0.778 0 1.05 0.421 1.05 0.945v1.909c0 0.523-0.272 0.943-1.05 0.943m-32.967-5.581h-2.293v5.477h-1.146v1.888h1.146v1.133c0 1.539 0.647 2.455 2.485 2.455h1.53v-1.888h-0.956c-0.716 0-0.763-0.263-0.763-0.756l-3e-3 -0.944h1.733l-0.203-1.888h-1.53v-5.477zm7.836-0.014h-1.911l-0.082 0.477c-0.873-0.477-1.652-0.554-2.165-0.554-1.402 0-2.148 0.924-2.148 2.202 0 1.507 0.87 2.045 2.428 2.045h1.585v0.326c0 0.769-0.09 0.995-1.289 0.995h-1.96l0.191 1.888h2.143c2.632 0 3.208-0.821 3.208-2.898v-4.481zm6.499 5.353c-1.189 0.201-1.531 0.245-2.103 0.245-1.028 0-1.339-0.224-1.339-1.085v-1.629c0-0.861 0.311-1.086 1.339-1.086 0.572 0 0.914 0.045 2.103 0.247v-1.841c-1.042-0.23-1.72-0.291-2.294-0.291-2.462 0-3.44 1.278-3.44 3.123v1.322c0 1.847 0.978 3.127 3.44 3.127 0.574 0 1.252-0.061 2.294-0.292v-1.84zm7.175-2.317h-4.204v-0.152c0-0.861 0.31-1.086 1.338-1.086 0.924 0 1.488 0.045 2.675 0.247v-1.841c-1.145-0.23-1.742-0.291-2.865-0.291-2.462 0-3.441 1.278-3.441 3.123v1.511c0 1.615 0.726 2.938 3.249 2.938s3.248-1.307 3.248-2.938v-1.511zm7.454-0.035c0-1.784-0.517-3.085-3.646-3.085-1.13 0-1.793 0.098-3.041 0.288v10.196l2.293 0.378v-3.567c0.495 0.182 1.136 0.274 1.72 0.274 2.292 0 2.674-1.014 2.674-2.644v-1.84zm7.348-0.039c0-1.539-0.644-3.031-3.338-3.031-2.693 0-3.35 1.492-3.35 3.031v1.486c0 1.54 0.656 3.032 3.35 3.032 2.695 0 3.338-1.492 3.338-3.032v-1.486zm7.342 0c0-1.539-0.644-3.031-3.337-3.031-2.695 0-3.351 1.492-3.351 3.031v1.486c0 1.54 0.656 3.032 3.351 3.032 2.693 0 3.337-1.492 3.337-3.032v-1.486zm7.536-2.948h-2.485l-2.101 3.462v-3.462h-2.293v10.386l2.293 0.378v-6.686l2.101 3.287h2.485l-2.294-3.587 2.294-3.778zm-10.881 5.581c-0.778 0-1.049-0.42-1.049-0.943v-1.909c0-0.524 0.271-0.945 1.049-0.945 0.779 0 1.053 0.421 1.053 0.945v1.909c0 0.523-0.275 0.943-1.053 0.943" fill="#fff"/></g><g transform="translate(70.616 42.534)"><path d="m0 0c0.386 0 0.694-0.311 0.694-0.699 0-0.394-0.308-0.701-0.697-0.701s-0.7 0.307-0.7 0.701c0 0.388 0.313 0.699 0.7 0.699h3e-3zm-3e-3 -0.109c-0.311 0-0.565-0.264-0.565-0.59 0-0.332 0.254-0.592 0.568-0.592 0.314-3e-3 0.565 0.26 0.565 0.589s-0.251 0.593-0.565 0.593h-3e-3zm-0.132-0.996h-0.126v0.779c0.066 9e-3 0.129 0.018 0.223 0.018 0.12 0 0.198-0.024 0.246-0.058s0.071-0.087 0.071-0.161c0-0.103-0.068-0.165-0.153-0.19v-6e-3c0.069-0.013 0.116-0.075 0.132-0.189 0.018-0.122 0.037-0.168 0.05-0.193h-0.132c-0.019 0.025-0.038 0.096-0.054 0.199-0.018 0.099-0.069 0.136-0.17 0.136h-0.087v-0.335zm0 0.431h0.091c0.103 0 0.191 0.037 0.191 0.134 0 0.068-0.05 0.136-0.191 0.136-0.041 0-0.069-3e-3 -0.091-6e-3v-0.264z" fill="#fff"/></g></g></g></svg>