<svg width="31" height="30" viewBox="0 0 31 30" fill="none" xmlns="http://www.w3.org/2000/svg">
<circle cx="15.002" cy="15" r="15" fill="white"/>
<path d="M16.8353 10.3333H18.5367C18.6825 10.3333 18.7797 10.24 18.7797 10.1V8.23333C18.7797 8.09333 18.6825 8 18.5367 8H16.5922C14.7936 8 13.4325 9.30667 13.4325 11.0333V13.1333H11.245C11.0992 13.1333 11.002 13.2267 11.002 13.3667V15.2333C11.002 15.3733 11.0992 15.4667 11.245 15.4667H13.4325V21.7667C13.4325 21.9067 13.5297 22 13.6756 22H15.62C15.7658 22 15.8631 21.9067 15.8631 21.7667V15.4667H18.0506C18.1478 15.4667 18.245 15.3733 18.2936 15.28L18.7797 13.4133C18.7797 13.3667 18.7797 13.2733 18.7311 13.2267C18.6825 13.18 18.6339 13.1333 18.5367 13.1333H15.8631V11.2667C15.8631 10.7533 16.3006 10.3333 16.8353 10.3333Z" fill="#121212"/>
</svg>
