<svg width="31" height="30" viewBox="0 0 31 30" fill="none" xmlns="http://www.w3.org/2000/svg">
<circle cx="15.002" cy="15" r="15" fill="white"/>
<path d="M17.1887 13.7588L17.1324 13.5173H11.627V15.7293H14.8156C14.4852 17.2822 13.1141 17.9241 11.859 17.9241C10.9449 17.9241 10.0941 17.6549 9.45781 17.051C8.80391 16.4264 8.4418 15.5636 8.4418 14.6215C8.4418 13.6863 8.78633 12.834 9.41211 12.2197C10.0344 11.6089 10.8887 11.3432 11.8273 11.3432C12.8996 11.3432 13.5816 11.8194 13.8699 12.0713L15.5574 10.4252C15.0828 10.0215 13.7891 9 11.7711 9C10.2137 9 8.72305 9.57975 7.6332 10.6495C6.56094 11.7021 6.00195 13.217 6.00195 14.625C6.00195 16.033 6.5293 17.4755 7.56992 18.5349C8.68438 19.6633 10.2629 20.25 11.8906 20.25C13.3707 20.25 14.7699 19.6806 15.7684 18.6522C16.7527 17.6377 17.259 16.2331 17.259 14.763C17.2555 14.1419 17.1922 13.7726 17.1887 13.7588ZM24.002 13.5207H21.998V11.5537H20.5566V13.5207H18.5527V14.9356H20.5566V16.9026H21.998V14.9356H24.002V13.5207Z" fill="#121212"/>
</svg>
