<svg width="31" height="30" viewBox="0 0 31 30" fill="none" xmlns="http://www.w3.org/2000/svg">
<circle cx="15.002" cy="15" r="15" fill="white"/>
<path d="M9.68459 11.371C10.6139 11.371 11.3672 10.6164 11.3672 9.68551C11.3672 8.75463 10.6139 8 9.68459 8C8.7553 8 8.00195 8.75463 8.00195 9.68551C8.00195 10.6164 8.7553 11.371 9.68459 11.371Z" fill="#121212"/>
<path d="M12.9558 12.6483V21.9995H15.8543V17.3752C15.8543 16.1549 16.0835 14.9732 17.5938 14.9732C19.0834 14.9732 19.1019 16.3683 19.1019 17.4522V22.0003H22.0019V16.8721C22.0019 14.3531 21.4605 12.4172 18.5213 12.4172C17.1101 12.4172 16.1642 13.193 15.7774 13.9271H15.7382V12.6483H12.9558ZM8.23242 12.6483H11.1355V21.9995H8.23242V12.6483Z" fill="#121212"/>
</svg>
