<svg xmlns="http://www.w3.org/2000/svg" version="1.1" xmlns:xlink="http://www.w3.org/1999/xlink" xmlns:svgjs="http://svgjs.dev/svgjs" width="100%" height="100%" viewBox="0 0 1000 600"><rect width="1000" height="600" x="0" y="0" fill="#ffffff"/><g><circle r="166.66666666666666" cx="391.15066019694007" cy="413.37291595681074" fill="#fe753e" transform="matrix(0.5568325704075068,0,0,0.5568325704075067,0,69.82051181440781)"/><path d="M450.7129158417975 411.9429567159858L450.7129158417975 411.9429567159858Q450.7129158417975 437.27369526361923 441.46194335377925 454.2581305570786Q432.24015374427216 471.24256585053786 414.7596095161242 479.79314925428974Q397.2498824094651 488.3729155365527 372.32770416098697 488.3729155365527L372.32770416098697 488.3729155365527L331.5884057594935 488.3729155365527L331.5884057594935 338.37291998950656L376.8510503302073 338.37291998950656Q399.7304270829085 338.37291998950656 416.2479363201902 346.7484061221918Q432.76544555747193 355.094709376366 441.72458926037916 371.46630422109223Q450.7129158417975 387.8378990658184 450.7129158417975 411.9429567159858ZM432.32770237980543 412.55579716471885L432.32770237980543 412.55579716471885Q432.32770237980543 392.3320623565276 425.61564032225283 379.1997670265333Q418.9035782647002 366.067471696539 405.91719732726136 359.67642130260845Q392.93081638982255 353.25618803016675 374.16622550718625 353.25618803016675L374.16622550718625 353.25618803016675L349.0397671091304 353.25618803016675L349.0397671091304 473.40209886035916L370.2849026652101 473.40209886035916Q401.2479367654856 473.40209886035916 416.8024110119011 458.11027052054357Q432.32770237980543 442.81844218072797 432.32770237980543 412.55579716471885Z " fill="#000000" transform="matrix(0.5568325704075068,0,0,0.5568325704075067,0,69.82051181440781)"/><path d="M726.1569106317625 397.74401732314226L726.1569106317625 397.74401732314226Q726.1569106317625 415.8198193787467 719.5554944432527 427.93976960496997Q712.9749029114887 440.0597198311932 700.5009335205821 446.161344257797Q688.0061394729291 452.2837933411469 670.22188261177 452.2837933411469L670.22188261177 452.2837933411469L641.1506617942309 452.2837933411469L641.1506617942309 345.24505766625424L673.4497044074136 345.24505766625424Q689.7762352963466 345.24505766625424 701.5629910146324 351.2217341523815Q713.3497467329183 357.1775859817627 719.7429163539673 368.8602184163181Q726.1569106317625 380.5428508508735 726.1569106317625 397.74401732314226ZM713.037376881727 398.1813351148101L713.037376881727 398.1813351148101Q713.037376881727 383.74984798977107 708.2477058301267 374.3787524540314Q703.4580347785266 365.0076569182918 694.1910625265173 360.4470570908985Q684.9240902745081 355.86563260675916 671.5338359867735 355.86563260675916L671.5338359867735 355.86563260675916L653.6038065283917 355.86563260675916L653.6038065283917 441.6007444304037L668.7641566395438 441.6007444304037Q690.8591174471433 441.6007444304037 701.9586594928081 430.68862429545356Q713.037376881727 419.77650416050346 713.037376881727 398.1813351148101ZM778.1352538699983 370.73443752346606L778.1352538699983 370.73443752346606Q792.483442368053 370.73443752346606 799.4388777212464 377.1692564580072Q806.3943130744398 383.60407539254845 806.3943130744398 397.74401732314226L806.3943130744398 397.74401732314226L806.3943130744398 452.2837933411469L797.5438339573524 452.2837933411469L795.1906477450444 440.4137389958767L794.607557356154 440.4137389958767Q791.2339629632877 444.80774156930124 787.5688233759762 447.7856674839919Q783.9245084454108 450.7427687419364 779.1140127370644 452.2421440276547Q774.3243416854642 453.7415193133731 767.3689063322707 453.7415193133731L767.3689063322707 453.7415193133731Q760.0594518143938 453.7415193133731 754.3743205227119 451.18008653360425Q748.7100138877759 448.6186537538354 745.4405427786401 443.4333142240595Q742.1918963262503 438.22715003753746 742.1918963262503 430.2513065037857L742.1918963262503 430.2513065037857Q742.1918963262503 418.2354795612929 751.7087644592126 411.80066062675166Q761.2256325921747 405.34501703546437 780.6966866497671 404.7619266465739L780.6966866497671 404.7619266465739L794.5242587291697 404.1788362576835L794.5242587291697 399.2850419223528Q794.5242587291697 388.87271354930874 790.0677821855068 384.7077822000911Q785.5904809850979 380.5428508508735 777.4688648541235 380.5428508508735L777.4688648541235 380.5428508508735Q771.1798185168049 380.5428508508735 765.4738625683768 382.37542064452924Q759.7470819632025 384.1871657814389 754.624216403665 386.6861245909695L754.624216403665 386.6861245909695L750.8966028461151 377.46080165245246Q756.311013600098 374.67029764847666 763.3497475802758 372.7127799143444Q770.3676569037075 370.73443752346606 778.1352538699983 370.73443752346606ZM794.3784861319469 420.151347981933L794.3784861319469 412.75859483707177L782.1544126219933 413.2583865989779Q767.1606597648099 413.8414769878683 760.9965613679678 418.1730055910547Q754.8532876278719 422.48370953749486 754.8532876278719 430.39707910100833L754.8532876278719 430.39707910100833Q754.8532876278719 437.2692158272174 759.0182189770894 440.55951159309933Q763.2039749830532 443.8706320157273 770.0761117092622 443.8706320157273L770.0761117092622 443.8706320157273Q780.7591606200054 443.8706320157273 787.5688233759762 437.9356048430922Q794.3784861319469 432.0005776704571 794.3784861319469 420.151347981933L794.3784861319469 420.151347981933ZM843.6496239931913 338.37292094004516L843.6496239931913 452.2837933411469L831.4255504832377 452.2837933411469L831.4255504832377 338.37292094004516L843.6496239931913 338.37292094004516ZM888.7558305052181 452.42956593836954L856.6233851460042 372.04639089846955L869.6387956123093 372.04639089846955L887.3605785032303 418.6103233827225Q888.9016031024407 422.7127807617019 890.2135564774443 426.4820436327438Q891.5463345091939 430.2513065037857 892.5667426897522 433.68737486689025Q893.5871508703106 437.1234432299948 894.170241259201 440.35126502563844L894.170241259201 440.35126502563844L894.6908576778532 440.35126502563844Q895.7112658584116 436.68612543832694 897.6063096223055 430.73027360894577Q899.5221780429457 424.75359712281846 901.7087670012849 418.5270247557381L901.7087670012849 418.5270247557381L918.4726156818857 372.04639089846955L931.5921494319213 372.04639089846955L896.6692000687316 464.0705490594328Q893.8786960647558 471.463302204294 890.1927318206982 476.9610115852613Q886.4859429198946 482.4378963094824 881.2173047631343 485.415822224173Q875.948666606374 488.3729234821175 868.4726148345284 488.3729234821175L868.4726148345284 488.3729234821175Q865.0365464714238 488.3729234821175 862.3918150646706 487.9772550039419Q859.7679083146636 487.58158652576617 857.8520398940235 487.060970107114L857.8520398940235 487.060970107114L857.8520398940235 477.31503074994475Q859.4763631202183 477.6898745713744 861.767075362288 477.9814197658196Q864.0786122611038 478.2729649602648 866.5775710706343 478.2729649602648L866.5775710706343 478.2729649602648Q871.1173462412816 478.2729649602648 874.4492913206556 476.5445184503395Q877.7812364000298 474.83689659716026 880.196896582576 471.5466008312784Q882.6125567651221 468.23548040865035 884.3618279317935 463.69570523800314L884.3618279317935 463.69570523800314L888.7558305052181 452.42956593836954ZM1026.2402143428917 452.2837933411469L1013.3705764738091 452.2837933411469L1000.1885687535354 418.3187781882773L957.289775856594 418.3187781882773L944.1702421065585 452.2837933411469L931.5921494319213 452.2837933411469L973.4705341483044 344.8077398745864L984.6533748209537 344.8077398745864L1026.2402143428917 452.2837933411469ZM961.4547072058116 407.26088545610446L996.4401305392395 407.26088545610446L983.9245118348406 373.5041168706957Q983.4871940431727 372.19216349569217 982.5084351761067 369.19341292425554Q981.5088516522943 366.1946623528188 980.4884434717361 362.96684055717515Q979.4680352911777 359.73901876153155 978.8016462753029 357.7606763706532L978.8016462753029 357.7606763706532Q978.0727832891898 360.7594269420898 977.2397970193464 363.73735285678043Q976.3859860927568 366.694454114725 975.5946491364053 369.2350622377477Q974.782487523308 371.7548457040243 974.1993971344174 373.5041168706957L974.1993971344174 373.5041168706957L961.4547072058116 407.26088545610446ZM1071.3464208549185 453.7415193133731L1071.3464208549185 453.7415193133731Q1060.5175993469525 453.7415193133731 1052.2293859620095 449.28504276971023Q1043.9619972338126 444.80774156930124 1039.359748092927 435.6657172577686Q1034.7366742952954 426.50286828948987 1034.7366742952954 412.61282223984915L1034.7366742952954 412.61282223984915Q1034.7366742952954 398.0355625175875 1039.60964397388 388.76859026557827Q1044.4826136524648 379.5016180135691 1053.041547575107 375.04514146990624Q1061.6004814977491 370.58866492624344 1072.5126016326992 370.58866492624344L1072.5126016326992 370.58866492624344Q1078.5101027755727 370.58866492624344 1084.1119354402704 371.7964950175165Q1089.713768104968 373.00432510878966 1093.3164337220412 374.8160702456993L1093.3164337220412 374.8160702456993L1089.6512941347296 384.99932739453635Q1085.9861545474182 383.5416014223102 1081.196483495818 382.37542064452924Q1076.4068124442178 381.18841521000223 1072.221056438254 381.18841521000223L1072.221056438254 381.18841521000223Q1063.8703690830725 381.18841521000223 1058.3518350453594 384.79108082707546Q1052.8124763509 388.3729217874026 1050.0844463171625 395.32835714059604Q1047.3355916266787 402.28379249378946 1047.3355916266787 412.44622498588046L1047.3355916266787 412.44622498588046Q1047.3355916266787 422.1921643430496 1050.0011476901782 429.0851257260048Q1052.6667037536772 435.95726245221385 1057.9769912239299 439.5807527260332Q1063.287278694182 443.2042429998525 1071.2631222279338 443.2042429998525L1071.2631222279338 443.2042429998525Q1077.6354671922368 443.2042429998525 1082.7583327517746 441.85064031135676Q1087.8811983113123 440.49703762286106 1092.066954317276 438.6644678292053L1092.066954317276 438.6644678292053L1092.066954317276 449.49328933717106Q1088.047795565281 451.55493035503383 1083.0915272597122 452.6586371625765Q1078.1560836108893 453.7415193133731 1071.3464208549185 453.7415193133731ZM1141.0465469840751 370.73443752346606L1141.0465469840751 370.73443752346606Q1155.3947354821298 370.73443752346606 1162.3501708353233 377.1692564580072Q1169.3056061885165 383.60407539254845 1169.3056061885165 397.74401732314226L1169.3056061885165 397.74401732314226L1169.3056061885165 452.2837933411469L1160.434302414683 452.2837933411469L1158.1019408591212 440.4137389958767L1157.5188504702307 440.4137389958767Q1154.1452560773646 444.80774156930124 1150.480116490053 447.7856674839919Q1146.8358015594877 450.7427687419364 1142.0253058511412 452.2421440276547Q1137.235634799541 453.7415193133731 1130.2801994463475 453.7415193133731L1130.2801994463475 453.7415193133731Q1122.9499202717245 453.7415193133731 1117.2856136367886 451.18008653360425Q1111.6213070018525 448.6186537538354 1108.3518358927167 443.4333142240595Q1105.1031894403272 438.22715003753746 1105.1031894403272 430.2513065037857L1105.1031894403272 430.2513065037857Q1105.1031894403272 418.2354795612929 1114.6200575732892 411.80066062675166Q1124.1369257062515 405.34501703546437 1143.607979763844 404.7619266465739L1143.607979763844 404.7619266465739L1157.4355518432462 404.1788362576835L1157.4355518432462 399.2850419223528Q1157.4355518432462 388.87271354930874 1152.9790752995837 384.7077822000911Q1148.5017740991746 380.5428508508735 1140.3801579682004 380.5428508508735L1140.3801579682004 380.5428508508735Q1134.0911116308816 380.5428508508735 1128.3851556824534 382.37542064452924Q1122.6583750772793 384.1871657814389 1117.5355095177415 386.6861245909695L1117.5355095177415 386.6861245909695L1113.807895960192 377.46080165245246Q1119.222306714175 374.67029764847666 1126.2610406943527 372.7127799143444Q1133.2789500177842 370.73443752346606 1141.0465469840751 370.73443752346606ZM1157.2897792460237 420.151347981933L1157.2897792460237 412.75859483707177L1145.06570573607 413.2583865989779Q1130.0511282221405 413.8414769878683 1123.9078544820445 418.1730055910547Q1117.7645807419485 422.48370953749486 1117.7645807419485 430.39707910100833L1117.7645807419485 430.39707910100833Q1117.7645807419485 437.2692158272174 1121.929512091166 440.55951159309933Q1126.11526809713 443.8706320157273 1132.9874048233391 443.8706320157273L1132.9874048233391 443.8706320157273Q1143.670453734082 443.8706320157273 1150.480116490053 437.9356048430922Q1157.2897792460237 432.0005776704571 1157.2897792460237 420.151347981933L1157.2897792460237 420.151347981933ZM1222.8874479962012 453.7415193133731L1222.8874479962012 453.7415193133731Q1207.6646239148108 453.7415193133731 1198.772495484231 443.3500155970751Q1189.8803670536515 432.95851188077717 1189.8803670536515 412.44622498588046L1189.8803670536515 412.44622498588046Q1189.8803670536515 391.7465161802689 1198.959917394946 381.16759055325616Q1208.0394677362406 370.58866492624344 1223.1165192204082 370.58866492624344L1223.1165192204082 370.58866492624344Q1229.488864184711 370.58866492624344 1234.236885922819 372.25463746593044Q1239.0057323176734 373.9414346623636 1242.4418006807778 376.7735879798316Q1245.8778690438824 379.58491664055344 1248.2310552561903 383.1667576008806L1248.2310552561903 383.1667576008806L1249.1056908395262 383.1667576008806Q1248.8141456450808 380.896870015557 1248.5226004506358 376.94018523380026Q1248.2310552561903 373.00432510878966 1248.2310552561903 370.50536629925904L1248.2310552561903 370.50536629925904L1248.2310552561903 338.37292094004516L1260.3718301391596 338.37292094004516L1260.3718301391596 452.2837933411469L1250.5634168117522 452.2837933411469L1248.7308470180965 440.87188144429064L1248.2310552561903 440.87188144429064Q1245.9611676708669 444.4537224046178 1242.4834499942701 447.36917434907014Q1239.0057323176734 450.30545095026855 1234.195236609327 452.0338974601938Q1229.4055655577267 453.7415193133731 1222.8874479962012 453.7415193133731ZM1224.8033164168414 443.64156079152036L1224.8033164168414 443.64156079152036Q1237.6729542859237 443.64156079152036 1243.0248910696685 436.3321062736435Q1248.376827853413 429.00182709902043 1248.376827853413 414.5703399739814L1248.376827853413 414.5703399739814L1248.376827853413 412.3837510156422Q1248.376827853413 397.07762830726745 1243.2747869506215 388.87271354930874Q1238.193570704576 380.6886234480961 1224.8033164168414 380.6886234480961L1224.8033164168414 380.6886234480961Q1213.599651087446 380.6886234480961 1208.0394677362406 389.2892066842305Q1202.4584597282887 397.8897899203649 1202.4584597282887 412.75859483707177L1202.4584597282887 412.75859483707177Q1202.4584597282887 427.54410112679426 1207.9978184227484 435.5824186307843Q1213.5163524604616 443.64156079152036 1224.8033164168414 443.64156079152036ZM1316.9732471750272 370.58866492624344L1316.9732471750272 370.58866492624344Q1327.2189782941023 370.58866492624344 1334.5492574687255 375.12844009689064Q1341.8587119866024 379.6473906107917 1345.7529227981208 387.8106560552582Q1349.6263089528934 395.9739214997248 1349.6263089528934 406.88604163467494L1349.6263089528934 406.88604163467494L1349.6263089528934 414.4245673767588L1294.2118973515526 414.4245673767588Q1294.4201439190138 428.5645093073526 1301.2298066749845 435.95726245221385Q1308.0394694309553 443.3500155970751 1320.4093155381315 443.3500155970751L1320.4093155381315 443.3500155970751Q1328.0311399071998 443.3500155970751 1333.8828684528507 441.95476359508723Q1339.7345969985013 440.55951159309933 1346.0444679925658 437.8523062161079L1346.0444679925658 437.8523062161079L1346.0444679925658 448.55617978359714Q1339.9636682227083 451.2633851605886 1333.9869917365809 452.5128645653539Q1328.0311399071998 453.7415193133731 1319.8886991194795 453.7415193133731L1319.8886991194795 453.7415193133731Q1308.3310146254007 453.7415193133731 1299.730431389266 449.03514688875714Q1291.1298481531317 444.3079498073952 1286.3610017582778 435.1451008391164Q1281.6129800201693 426.00307652758374 1281.6129800201693 412.75859483707177L1281.6129800201693 412.75859483707177Q1281.6129800201693 399.7848336842589 1285.9653332801017 390.3096148647888Q1290.3176865400342 380.8343960453187 1298.27270541704 375.71153048578105Q1306.2068996372996 370.58866492624344 1316.9732471750272 370.58866492624344ZM1316.8274745778044 380.5428508508735L1316.8274745778044 380.5428508508735Q1307.081535220635 380.5428508508735 1301.3131053019688 386.91519581517645Q1295.5238507265562 393.2667161227333 1294.4201439190138 404.6994526763357L1294.4201439190138 404.6994526763357L1336.8816190242874 404.6994526763357Q1336.819145054049 397.5149460989353 1334.6533807524556 392.0588860314602Q1332.4876164508628 386.60282596398514 1328.0936138774377 383.5832507358024Q1323.6996113040136 380.5428508508735 1316.8274745778044 380.5428508508735ZM1457.393907613899 370.58866492624344L1457.393907613899 370.58866492624344Q1470.6383893044108 370.58866492624344 1477.3855780901436 377.50245096594466Q1484.11194221913 384.4162370056459 1484.11194221913 399.7223597140206L1484.11194221913 399.7223597140206L1484.11194221913 452.2837933411469L1472.0961152766372 452.2837933411469L1472.0961152766372 400.3054501029111Q1472.0961152766372 390.5595107457419 1467.8895346139275 385.70736572390337Q1463.6829539512173 380.8343960453187 1455.4155652230206 380.8343960453187L1455.4155652230206 380.8343960453187Q1443.774582101957 380.8343960453187 1438.505943945197 387.5607601743052Q1433.2373057884365 394.3079489600377 1433.2373057884365 407.40665805332713L1433.2373057884365 407.40665805332713L1433.2373057884365 452.2837933411469L1421.1590048757057 452.2837933411469L1421.1590048757057 400.3054501029111Q1421.1590048757057 393.7873325413855 1419.2847857685579 389.4766285949453Q1417.41056666141 385.14509999175897 1413.7246024173523 382.97933569016584Q1410.0178135165484 380.8343960453187 1404.3951561951048 380.8343960453187L1404.3951561951048 380.8343960453187Q1396.3984880046069 380.8343960453187 1391.5671676395145 384.12469181120065Q1386.7358472744222 387.41498757708257 1384.5909076295748 393.89145582511594Q1382.425143327982 400.36792407314937 1382.425143327982 409.82231823587335L1382.425143327982 409.82231823587335L1382.425143327982 452.2837933411469L1370.2635437882664 452.2837933411469L1370.2635437882664 372.04639089846955L1380.0719571156737 372.04639089846955L1381.9045269093294 383.39582882508756L1382.5709159252046 383.39582882508756Q1384.9865761077508 379.21007281912387 1388.6517156950622 376.3570948449098Q1392.2960306256277 373.5041168706957 1396.8358057962746 372.04639089846955Q1401.375580966922 370.58866492624344 1406.4984465264597 370.58866492624344L1406.4984465264597 370.58866492624344Q1415.6612954947382 370.58866492624344 1421.8462185483268 373.9830839758558Q1428.031141601915 377.3983276822142 1430.8216456058904 384.33293837866154L1430.8216456058904 384.33293837866154L1431.4672099650193 384.33293837866154Q1435.423894746776 377.3983276822142 1442.3168561297311 373.9830839758558Q1449.1889928559403 370.58866492624344 1457.393907613899 370.58866492624344ZM1528.5517597152816 452.42956593836954L1496.4193143560678 372.04639089846955L1509.434724822373 372.04639089846955L1527.156507713294 418.6103233827225Q1528.6975323125043 422.7127807617019 1530.009485687508 426.4820436327438Q1531.3422637192575 430.2513065037857 1532.3626718998157 433.68737486689025Q1533.3830800803744 437.1234432299948 1533.9661704692649 440.35126502563844L1533.9661704692649 440.35126502563844L1534.4867868879169 440.35126502563844Q1535.507195068475 436.68612543832694 1537.4022388323692 430.73027360894577Q1539.3181072530092 424.75359712281846 1541.5046962113488 418.5270247557381L1541.5046962113488 418.5270247557381L1558.2685448919497 372.04639089846955L1571.388078641985 372.04639089846955L1536.4651292787953 464.0705490594328Q1533.6746252748194 471.463302204294 1529.9886610307622 476.9610115852613Q1526.2818721299582 482.4378963094824 1521.013233973198 485.415822224173Q1515.7445958164376 488.3729234821175 1508.268544044592 488.3729234821175L1508.268544044592 488.3729234821175Q1504.8324756814873 488.3729234821175 1502.1877442747345 487.9772550039419Q1499.5638375247272 487.58158652576617 1497.6479691040872 487.060970107114L1497.6479691040872 487.060970107114L1497.6479691040872 477.31503074994475Q1499.2722923302822 477.6898745713744 1501.5838292290978 477.9814197658196Q1503.8745414711675 478.2729649602648 1506.373500280698 478.2729649602648L1506.373500280698 478.2729649602648Q1510.9132754513453 478.2729649602648 1514.2452205307195 476.5445184503395Q1517.5771656100933 474.83689659716026 1519.9928257926395 471.5466008312784Q1522.4084859751856 468.23548040865035 1524.157757141857 463.69570523800314L1524.157757141857 463.69570523800314L1528.5517597152816 452.42956593836954Z " fill="#fe753e" transform="matrix(0.5568325704075068,0,0,0.5568325704075067,0,69.82051181440781)"/></g></svg>